<svg width="2830" height="922" viewBox="0 0 2830 922" fill="none" xmlns="http://www.w3.org/2000/svg">
<path d="M0.525493 262.197C0.448311 229.796 26.6517 203.468 59.0524 203.391V203.391V203.391C87.15 203.324 109.982 226.047 110.049 254.145L111.009 657.2C111.081 687.449 86.6176 712.03 56.3685 712.102V712.102C26.1193 712.174 1.53911 687.71 1.46706 657.461L0.525493 262.197Z" fill="black"/>
<rect width="109.277" height="384.513" rx="54.6386" transform="matrix(0.807077 -0.590447 0.595792 0.803139 184.215 428.411)" fill="black"/>
<path d="M258.962 487.145C305.59 483.898 350.186 468.164 387.291 441.871C424.396 415.578 452.399 379.866 467.873 339.107C483.346 298.348 485.619 254.31 474.411 212.386C463.204 170.462 439.004 132.47 404.773 103.062C370.542 73.6538 327.766 54.1052 281.682 46.8094C235.598 39.5137 188.206 44.7873 145.307 61.9849C102.408 79.1824 65.8647 107.557 40.15 143.636C14.4353 179.715 0.665478 221.932 0.526275 265.119L110.263 265.382C110.339 241.905 117.824 218.956 131.803 199.343C145.782 179.73 165.648 164.305 188.968 154.956C212.288 145.608 238.051 142.741 263.103 146.707C288.155 150.673 311.408 161.3 330.016 177.286C348.625 193.273 361.78 213.926 367.872 236.716C373.965 259.507 372.73 283.446 364.318 305.603C355.906 327.76 340.684 347.173 320.513 361.467C300.342 375.76 271.023 382.532 250.579 386.643L258.962 487.145Z" fill="black"/>
<ellipse cx="240.971" cy="265.244" rx="68.1798" ry="67.7068" transform="rotate(-0.136485 240.971 265.244)" fill="black"/>
<path d="M583.959 679V407.5H629.459V679H583.959ZM606.959 351.5C588.959 351.5 576.459 340 576.459 321C576.459 303.5 588.959 292 606.959 292C624.459 292 637.459 303.5 637.459 321C637.459 340 624.459 351.5 606.959 351.5ZM813.654 686C745.654 686 701.654 634.5 701.654 544C701.654 455.5 757.654 401 819.654 401C851.154 401 872.154 412.5 895.654 432.5L893.654 385.5V281.5H939.154V679H901.654L897.654 647H896.654C875.154 668.5 846.654 686 813.654 686ZM823.654 647.5C849.154 647.5 871.154 635 893.654 610.5V468C870.654 447 849.654 439 827.154 439C783.654 439 749.154 481.5 749.154 543.5C749.154 608.5 776.154 647.5 823.654 647.5ZM1141.21 686C1068.71 686 1011.21 633 1011.21 544C1011.21 455.5 1070.71 401 1133.21 401C1202.21 401 1241.21 450.5 1241.21 528.5C1241.21 538 1240.71 547.5 1239.21 554.5H1056.21C1059.71 612 1094.71 649.5 1146.71 649.5C1172.71 649.5 1194.21 641 1214.21 627.5L1230.71 658C1206.71 673.5 1178.21 686 1141.21 686ZM1055.71 521.5H1201.21C1201.21 467 1176.71 437.5 1133.71 437.5C1095.71 437.5 1061.71 468 1055.71 521.5ZM1401.37 686C1349.87 686 1305.37 665 1273.37 631.5L1300.87 599.5C1327.37 627.5 1364.37 645 1402.37 645C1450.37 645 1478.87 621 1478.87 585.5C1478.87 547.5 1452.37 535.5 1417.87 520.5L1365.37 497.5C1330.87 483 1290.87 457 1290.87 403.5C1290.87 347 1339.37 306 1406.37 306C1449.87 306 1488.37 324.5 1513.87 351.5L1489.37 381C1466.87 360 1439.87 346.5 1406.37 346.5C1364.87 346.5 1337.87 367.5 1337.87 400C1337.87 436 1369.87 449 1398.37 461L1450.37 483.5C1493.37 502 1525.87 527.5 1525.87 582C1525.87 640 1478.37 686 1401.37 686ZM1593.72 679V281.5H1639.22V390L1637.72 446C1662.72 421.5 1690.22 401 1727.72 401C1784.72 401 1810.72 438 1810.72 507V679H1764.72V513C1764.72 462 1749.22 440.5 1713.22 440.5C1685.72 440.5 1666.22 455 1639.22 482V679H1593.72ZM1959.94 686C1914.44 686 1880.44 657.5 1880.44 608.5C1880.44 549.5 1931.44 520 2046.94 507C2046.94 472 2035.94 438.5 1991.44 438.5C1959.44 438.5 1930.94 453.5 1909.94 468L1891.94 436C1916.94 420 1954.94 401 1998.44 401C2064.94 401 2092.94 445 2092.94 512.5V679H2055.44L2051.44 647H2049.44C2023.94 668.5 1993.44 686 1959.94 686ZM1972.44 649C1998.94 649 2020.94 636.5 2046.94 613V537.5C1955.44 548 1924.94 570.5 1924.94 605.5C1924.94 636.5 1945.94 649 1972.44 649ZM2179.17 679V407.5H2216.17L2220.67 457H2222.17C2240.67 422.5 2268.67 401 2299.17 401C2311.17 401 2319.17 402.5 2328.17 406.5L2319.67 446.5C2310.17 443.5 2304.17 442 2293.17 442C2270.67 442 2242.67 458.5 2224.67 505V679H2179.17ZM2475.69 686C2403.19 686 2345.69 633 2345.69 544C2345.69 455.5 2405.19 401 2467.69 401C2536.69 401 2575.69 450.5 2575.69 528.5C2575.69 538 2575.19 547.5 2573.69 554.5H2390.69C2394.19 612 2429.19 649.5 2481.19 649.5C2507.19 649.5 2528.69 641 2548.69 627.5L2565.19 658C2541.19 673.5 2512.69 686 2475.69 686ZM2390.19 521.5H2535.69C2535.69 467 2511.19 437.5 2468.19 437.5C2430.19 437.5 2396.19 468 2390.19 521.5Z" fill="black"/>
</svg>
