<svg width="502" height="706" viewBox="0 0 502 706" fill="none" xmlns="http://www.w3.org/2000/svg">
<path d="M0.530376 221.615C0.453194 189.214 26.6567 162.885 59.0576 162.808V162.808V162.808C87.1555 162.741 109.987 185.465 110.054 213.562L111.033 624.332C111.105 654.581 86.6414 679.161 56.3921 679.233V679.233C26.1427 679.305 1.56237 654.842 1.49031 624.593L0.530376 221.615Z" fill="black"/>
<rect width="109.854" height="388.298" rx="54.9272" transform="matrix(0.80282 -0.596222 0.590017 0.807391 184.228 391.242)" fill="black"/>
<path d="M258.98 450.872C305.608 447.577 350.204 431.606 387.308 404.916C424.412 378.225 452.414 341.972 467.887 300.596C483.359 259.219 485.629 214.514 474.42 171.954C463.212 129.394 439.01 90.8249 404.778 60.9695C370.546 31.114 327.769 11.2674 281.684 3.8593C235.6 -3.54877 188.207 1.80318 145.309 19.2599C102.41 36.7167 65.8674 65.5208 40.1538 102.146C14.4403 138.771 0.671901 181.627 0.534255 225.469L110.272 225.74C110.347 201.908 117.831 178.61 131.81 158.7C145.788 138.791 165.653 123.132 188.973 113.643C212.293 104.153 238.056 101.244 263.108 105.271C288.16 109.298 311.414 120.087 330.023 136.317C348.632 152.546 361.789 173.513 367.882 196.649C373.975 219.785 372.741 244.087 364.33 266.58C355.919 289.073 340.697 308.78 320.526 323.29C300.356 337.799 271.037 344.672 250.593 348.845L258.98 450.872Z" fill="black"/>
<ellipse cx="240.98" cy="225.606" rx="68.1802" ry="68.7335" transform="rotate(-0.136485 240.98 225.606)" fill="black"/>
</svg>
