<svg width="current" height="current" viewBox="0 0 406 71" fill="none" xmlns="http://www.w3.org/2000/svg">
<path fill = "current"  d="M0.807084 70V4.54545H26.6309C31.5741 4.54545 35.7929 5.42969 39.2872 7.19815C42.8028 8.94531 45.4768 11.4276 47.3092 14.6449C49.1629 17.8409 50.0898 21.6016 50.0898 25.9268C50.0898 30.2734 49.1523 34.0128 47.2773 37.1449C45.4023 40.2557 42.6856 42.642 39.1274 44.304C35.5905 45.9659 31.3078 46.7969 26.2794 46.7969H8.9889V35.6747H24.0422C26.6842 35.6747 28.8788 35.3125 30.626 34.5881C32.3731 33.8636 33.6729 32.777 34.5251 31.3281C35.3987 29.8793 35.8355 28.0788 35.8355 25.9268C35.8355 23.7535 35.3987 21.9212 34.5251 20.4297C33.6729 18.9382 32.3625 17.8089 30.594 17.0419C28.8469 16.2536 26.6416 15.8594 23.9783 15.8594H14.6459V70H0.807084ZM36.1551 40.2131L52.4229 70H37.1459L21.2297 40.2131H36.1551ZM55.1139 70V20.9091H68.729V70H55.1139ZM61.9534 14.581C59.9292 14.581 58.1927 13.9098 56.7439 12.5675C55.3163 11.2038 54.6025 9.57386 54.6025 7.67755C54.6025 5.80255 55.3163 4.19389 56.7439 2.85156C58.1927 1.48792 59.9292 0.806105 61.9534 0.806105C63.9775 0.806105 65.7034 1.48792 67.1309 2.85156C68.5798 4.19389 69.3042 5.80255 69.3042 7.67755C69.3042 9.57386 68.5798 11.2038 67.1309 12.5675C65.7034 13.9098 63.9775 14.581 61.9534 14.581ZM93.2249 70.799C89.4962 70.799 86.1191 69.8402 83.0935 67.9226C80.0892 65.9837 77.7029 63.1392 75.9344 59.3892C74.1872 55.6179 73.3137 50.9943 73.3137 45.5185C73.3137 39.8935 74.2192 35.2166 76.0303 31.4879C77.8414 27.7379 80.249 24.9361 83.2533 23.0824C86.2789 21.2074 89.5921 20.2699 93.1929 20.2699C95.9415 20.2699 98.232 20.7386 100.064 21.6761C101.918 22.5923 103.41 23.7429 104.539 25.1278C105.689 26.4915 106.563 27.8338 107.16 29.1548H107.575V4.54545H121.158V70H107.735V62.1378H107.16C106.52 63.5014 105.615 64.8544 104.443 66.1967C103.292 67.5178 101.79 68.6151 99.9365 69.4886C98.1041 70.3622 95.8669 70.799 93.2249 70.799ZM97.5395 59.9645C99.7341 59.9645 101.588 59.3679 103.101 58.1747C104.635 56.9602 105.807 55.2663 106.616 53.093C107.447 50.9197 107.863 48.3736 107.863 45.4545C107.863 42.5355 107.458 40 106.648 37.848C105.839 35.696 104.667 34.0341 103.133 32.8622C101.598 31.6903 99.7341 31.1044 97.5395 31.1044C95.3023 31.1044 93.4166 31.7116 91.8825 32.9261C90.3485 34.1406 89.1872 35.8239 88.3989 37.9759C87.6105 40.1278 87.2164 42.6207 87.2164 45.4545C87.2164 48.3097 87.6105 50.8345 88.3989 53.0291C89.2085 55.2024 90.3698 56.907 91.8825 58.1428C93.4166 59.3572 95.3023 59.9645 97.5395 59.9645ZM150.224 70.9588C145.175 70.9588 140.828 69.9361 137.185 67.8906C133.562 65.8239 130.771 62.9048 128.811 59.1335C126.851 55.3409 125.871 50.8558 125.871 45.6783C125.871 40.6286 126.851 36.1967 128.811 32.3828C130.771 28.5689 133.53 25.5966 137.089 23.4659C140.668 21.3352 144.866 20.2699 149.681 20.2699C152.92 20.2699 155.935 20.7919 158.726 21.8359C161.538 22.8587 163.989 24.4034 166.077 26.4702C168.186 28.5369 169.827 31.1364 170.998 34.2685C172.17 37.3793 172.756 41.0227 172.756 45.1989V48.9382H131.304V40.5007H159.94C159.94 38.5405 159.514 36.804 158.662 35.2912C157.81 33.7784 156.627 32.5959 155.114 31.7436C153.623 30.87 151.886 30.4332 149.905 30.4332C147.838 30.4332 146.006 30.9126 144.408 31.8714C142.831 32.8089 141.595 34.0767 140.7 35.6747C139.805 37.2514 139.347 39.0092 139.326 40.9482V48.9702C139.326 51.3991 139.773 53.4979 140.668 55.2663C141.584 57.0348 142.873 58.3984 144.535 59.3572C146.197 60.3161 148.168 60.7955 150.448 60.7955C151.961 60.7955 153.346 60.5824 154.603 60.1562C155.86 59.7301 156.936 59.0909 157.831 58.2386C158.726 57.3864 159.408 56.3423 159.876 55.1065L172.469 55.9375C171.829 58.9631 170.519 61.6051 168.538 63.8636C166.577 66.1009 164.042 67.848 160.931 69.1051C157.842 70.3409 154.273 70.9588 150.224 70.9588ZM212.905 23.37C212.649 20.7919 211.552 18.7891 209.613 17.3615C207.674 15.9339 205.043 15.2202 201.719 15.2202C199.46 15.2202 197.553 15.5398 195.998 16.179C194.442 16.7969 193.249 17.6598 192.418 18.7678C191.609 19.8757 191.204 21.1328 191.204 22.5391C191.161 23.7109 191.406 24.7337 191.939 25.6072C192.493 26.4808 193.249 27.2372 194.208 27.8764C195.167 28.4943 196.275 29.0376 197.532 29.5064C198.789 29.9538 200.131 30.3374 201.559 30.657L207.44 32.0632C210.295 32.7024 212.915 33.5547 215.302 34.62C217.688 35.6854 219.755 36.9957 221.502 38.5511C223.249 40.1065 224.602 41.9389 225.561 44.0483C226.541 46.1577 227.042 48.576 227.063 51.3033C227.042 55.3089 226.019 58.782 223.995 61.7223C221.992 64.6413 219.094 66.9105 215.302 68.5298C211.53 70.1278 206.981 70.9268 201.655 70.9268C196.371 70.9268 191.768 70.1172 187.848 68.4979C183.949 66.8786 180.902 64.4815 178.707 61.3068C176.534 58.1108 175.394 54.1584 175.288 49.4496H188.679C188.828 51.6442 189.457 53.4766 190.565 54.9467C191.694 56.3956 193.196 57.4929 195.071 58.2386C196.967 58.9631 199.109 59.3253 201.495 59.3253C203.839 59.3253 205.873 58.9844 207.599 58.3026C209.347 57.6207 210.699 56.6726 211.658 55.4581C212.617 54.2436 213.097 52.848 213.097 51.2713C213.097 49.8011 212.66 48.5653 211.786 47.5639C210.934 46.5625 209.677 45.7102 208.015 45.0071C206.374 44.304 204.361 43.6648 201.974 43.0895L194.847 41.2997C189.329 39.9574 184.972 37.8587 181.775 35.0036C178.579 32.1484 176.992 28.3026 177.013 23.4659C176.992 19.5028 178.047 16.0405 180.177 13.0788C182.329 10.1172 185.28 7.8054 189.03 6.14346C192.78 4.48153 197.042 3.65057 201.815 3.65057C206.672 3.65057 210.913 4.48153 214.535 6.14346C218.178 7.8054 221.012 10.1172 223.036 13.0788C225.06 16.0405 226.104 19.4709 226.168 23.37H212.905ZM245.231 41.6193V70H231.616V4.54545H244.847V29.5703H245.423C246.531 26.6726 248.32 24.4034 250.792 22.7628C253.264 21.1009 256.364 20.2699 260.092 20.2699C263.502 20.2699 266.474 21.0156 269.009 22.5071C271.566 23.9773 273.548 26.0973 274.954 28.8672C276.381 31.6158 277.085 34.9077 277.063 38.7429V70H263.448V41.1719C263.47 38.1463 262.703 35.7919 261.147 34.1087C259.613 32.4254 257.461 31.5838 254.691 31.5838C252.837 31.5838 251.197 31.978 249.769 32.7663C248.363 33.5547 247.255 34.7053 246.445 36.218C245.657 37.7095 245.252 39.5099 245.231 41.6193ZM297.277 70.9268C294.144 70.9268 291.353 70.3835 288.903 69.2969C286.453 68.1889 284.514 66.5589 283.086 64.407C281.68 62.2337 280.977 59.5277 280.977 56.2891C280.977 53.5618 281.478 51.2713 282.479 49.4176C283.48 47.5639 284.844 46.0724 286.57 44.9432C288.296 43.8139 290.256 42.9616 292.451 42.3864C294.666 41.8111 296.989 41.4062 299.418 41.1719C302.273 40.8736 304.574 40.5966 306.321 40.3409C308.068 40.0639 309.336 39.6591 310.125 39.1264C310.913 38.5937 311.307 37.8054 311.307 36.7614V36.5696C311.307 34.5455 310.668 32.9794 309.389 31.8714C308.132 30.7635 306.343 30.2095 304.02 30.2095C301.57 30.2095 299.62 30.7528 298.171 31.8395C296.723 32.9048 295.764 34.2472 295.295 35.8665L282.703 34.8438C283.342 31.8608 284.599 29.2827 286.474 27.1094C288.349 24.9148 290.767 23.2315 293.729 22.0597C296.712 20.8665 300.164 20.2699 304.084 20.2699C306.811 20.2699 309.421 20.5895 311.914 21.2287C314.429 21.8679 316.655 22.8587 318.594 24.201C320.554 25.5433 322.099 27.2692 323.228 29.3786C324.358 31.4666 324.922 33.9702 324.922 36.8892V70H312.01V63.1925H311.627C310.838 64.7266 309.784 66.0795 308.463 67.2514C307.142 68.402 305.554 69.3075 303.701 69.968C301.847 70.6072 299.706 70.9268 297.277 70.9268ZM301.176 61.5305C303.179 61.5305 304.947 61.1364 306.481 60.348C308.015 59.5384 309.219 58.4517 310.093 57.0881C310.966 55.7244 311.403 54.1797 311.403 52.4538V47.2443C310.977 47.5213 310.391 47.777 309.645 48.0114C308.921 48.2244 308.1 48.4268 307.184 48.6186C306.268 48.7891 305.352 48.9489 304.436 49.098C303.519 49.2259 302.688 49.343 301.943 49.4496C300.345 49.6839 298.949 50.0568 297.756 50.5682C296.563 51.0795 295.636 51.772 294.975 52.6456C294.315 53.4979 293.985 54.5632 293.985 55.8416C293.985 57.6953 294.656 59.1122 295.998 60.0923C297.362 61.0511 299.088 61.5305 301.176 61.5305ZM330.985 70V20.9091H344.185V29.4744H344.696C345.591 26.4276 347.093 24.1264 349.202 22.571C351.312 20.9943 353.741 20.206 356.489 20.206C357.171 20.206 357.906 20.2486 358.695 20.3338C359.483 20.419 360.175 20.5362 360.772 20.6854V32.7663C360.133 32.5746 359.248 32.4041 358.119 32.255C356.99 32.1058 355.957 32.0312 355.019 32.0312C353.016 32.0312 351.226 32.468 349.65 33.3416C348.094 34.1939 346.859 35.3871 345.942 36.9212C345.047 38.4553 344.6 40.2237 344.6 42.2266V70H330.985ZM383.398 70.9588C378.348 70.9588 374.002 69.9361 370.358 67.8906C366.736 65.8239 363.945 62.9048 361.985 59.1335C360.025 55.3409 359.044 50.8558 359.044 45.6783C359.044 40.6286 360.025 36.1967 361.985 32.3828C363.945 28.5689 366.704 25.5966 370.263 23.4659C373.842 21.3352 378.04 20.2699 382.855 20.2699C386.093 20.2699 389.108 20.7919 391.9 21.8359C394.712 22.8587 397.162 24.4034 399.25 26.4702C401.36 28.5369 403 31.1364 404.172 34.2685C405.344 37.3793 405.93 41.0227 405.93 45.1989V48.9382H364.478V40.5007H393.114C393.114 38.5405 392.688 36.804 391.836 35.2912C390.983 33.7784 389.801 32.5959 388.288 31.7436C386.797 30.87 385.06 30.4332 383.079 30.4332C381.012 30.4332 379.179 30.9126 377.581 31.8714C376.005 32.8089 374.769 34.0767 373.874 35.6747C372.979 37.2514 372.521 39.0092 372.5 40.9482V48.9702C372.5 51.3991 372.947 53.4979 373.842 55.2663C374.758 57.0348 376.047 58.3984 377.709 59.3572C379.371 60.3161 381.342 60.7955 383.622 60.7955C385.135 60.7955 386.52 60.5824 387.777 60.1562C389.034 59.7301 390.11 59.0909 391.005 58.2386C391.9 57.3864 392.581 56.3423 393.05 55.1065L405.642 55.9375C405.003 58.9631 403.693 61.6051 401.711 63.8636C399.751 66.1009 397.216 67.848 394.105 69.1051C391.015 70.3409 387.446 70.9588 383.398 70.9588Z" fill="#0583F2"/>
</svg>
